HIERARCHY
ROOT Hips
{
	OFFSET 0.000000 0.000000 0.000000
	CHANNELS 6 Xposition Yposition Zposition Zrotation Yrotation Xrotation 
	JOINT LHipJoint
	{
		OFFSET 0.000000 0.000000 0.000000
		CHANNELS 3 Zrotation Yrotation Xrotation
		JOINT LeftUpLeg
		{
			OFFSET 1.363060 -1.794630 0.839290
			CHANNELS 3 Zrotation Yrotation Xrotation
			JOINT LeftLeg
			{
				OFFSET 2.448110 -6.726130 0.000000
				CHANNELS 3 Zrotation Yrotation Xrotation
				JOINT LeftFoot
				{
					OFFSET 2.562200 -7.039590 0.000000
					CHANNELS 3 Zrotation Yrotation Xrotation
					JOINT LeftToeBase
					{
						OFFSET 0.157640 -0.433110 2.322550
						CHANNELS 3 Zrotation Yrotation Xrotation
						End Site
						{
							OFFSET 0.000000 0.000000 0.000000
						}
					}
				}
			}
		}
	}
	JOINT RHipJoint
	{
		OFFSET 0.000000 0.000000 0.000000
		CHANNELS 3 Zrotation Yrotation Xrotation
		JOINT RightUpLeg
		{
			OFFSET -1.305520 -1.794630 0.839290
			CHANNELS 3 Zrotation Yrotation Xrotation
			JOINT RightLeg
			{
				OFFSET -2.542530 -6.985550 0.000000
				CHANNELS 3 Zrotation Yrotation Xrotation
				JOINT RightFoot
				{
					OFFSET -2.568260 -7.056230 0.000000
					CHANNELS 3 Zrotation Yrotation Xrotation
					JOINT RightToeBase
					{
						OFFSET -0.164730 -0.452590 2.363150
						CHANNELS 3 Zrotation Yrotation Xrotation
						End Site
						{
							OFFSET 0.000000 0.000000 0.000000
						}
					}
				}
			}
		}
	}
	JOINT LowerBack
	{
		OFFSET 0.000000 0.000000 0.000000
		CHANNELS 3 Zrotation Yrotation Xrotation
		JOINT Spine
		{
			OFFSET 0.028270 2.035590 -0.193380
			CHANNELS 3 Zrotation Yrotation Xrotation
			JOINT Spine1
			{
				OFFSET 0.056720 2.048850 -0.042750
				CHANNELS 3 Zrotation Yrotation Xrotation
				JOINT Neck
				{
					OFFSET 0.000000 0.000000 0.000000
					CHANNELS 3 Zrotation Yrotation Xrotation
					JOINT Neck1
					{
						OFFSET -0.054170 1.746240 0.172020
						CHANNELS 3 Zrotation Yrotation Xrotation
						JOINT Head
						{
							OFFSET 0.104070 1.761360 -0.123970
							CHANNELS 3 Zrotation Yrotation Xrotation
							End Site
							{
								OFFSET 0.000000 0.000000 0.000000
							}
						}
					}
				}
				JOINT LeftShoulder
				{
					OFFSET 0.000000 0.000000 0.000000
					CHANNELS 3 Zrotation Yrotation Xrotation
					JOINT LeftArm
					{
						OFFSET 3.362410 1.200890 -0.311210
						CHANNELS 3 Zrotation Yrotation Xrotation
						JOINT LeftForeArm
						{
							OFFSET 4.983000 -0.000000 -0.000000
							CHANNELS 3 Zrotation Yrotation Xrotation
							JOINT LeftHand
							{
								OFFSET 3.483560 -0.000000 -0.000000
								CHANNELS 3 Zrotation Yrotation Xrotation
								JOINT LeftFingerBase
								{
									OFFSET 0.000000 0.000000 0.000000
									CHANNELS 3 Zrotation Yrotation Xrotation
									JOINT LeftHandIndex1
									{
										OFFSET 0.715260 -0.000000 -0.000000
										CHANNELS 3 Zrotation Yrotation Xrotation
										End Site
										{
											OFFSET 0.000000 0.000000 0.000000
										}
									}
								}
								JOINT LThumb
								{
									OFFSET 0.000000 0.000000 0.000000
									CHANNELS 3 Zrotation Yrotation Xrotation
									End Site
									{
										OFFSET 0.000000 0.000000 0.000000
									}
								}
							}
						}
					}
				}
				JOINT RightShoulder
				{
					OFFSET 0.000000 0.000000 0.000000
					CHANNELS 3 Zrotation Yrotation Xrotation
					JOINT RightArm
					{
						OFFSET -3.136600 1.374050 -0.404650
						CHANNELS 3 Zrotation Yrotation Xrotation
						JOINT RightForeArm
						{
							OFFSET -5.241900 -0.000000 -0.000000
							CHANNELS 3 Zrotation Yrotation Xrotation
							JOINT RightHand
							{
								OFFSET -3.444170 -0.000000 -0.000000
								CHANNELS 3 Zrotation Yrotation Xrotation
								JOINT RightFingerBase
								{
									OFFSET 0.000000 0.000000 0.000000
									CHANNELS 3 Zrotation Yrotation Xrotation
									JOINT RightHandIndex1
									{
										OFFSET -0.622530 -0.000000 -0.000000
										CHANNELS 3 Zrotation Yrotation Xrotation
										End Site
										{
											OFFSET 0.000000 0.000000 0.000000
										}
									}
								}
								JOINT RThumb
								{
									OFFSET 0.000000 0.000000 0.000000
									CHANNELS 3 Zrotation Yrotation Xrotation
									End Site
									{
										OFFSET 0.000000 0.000000 0.000000
									}
								}
							}
						}
					}
				}
			}
		}
	}
}
MOTION
Frames: 5
Frame Time: 0.008333
21.321835 18.681495 33.209219 -1.425729 8.803287 4.351303 -17.197396 0.890234 2.591586 1.896542 -5.543313 -31.006244 -17.695917 -32.057913 43.226787 -16.132316 51.282851 -13.111281 -0.618922 -0.953599 -3.499800 16.107455 -6.498085 6.117558 -2.861449 6.022737 -13.545996 -4.080900 -16.686431 15.008530 17.771642 -15.132695 -3.327391 -0.167940 -0.572145 -1.303374 3.365296 2.050681 3.857415 0.637931 2.009241 -4.077371 0.251990 1.941748 -0.690073 -3.015201 -1.046618 -6.031927 2.300080 -12.539221 28.318235 -6.111978 -10.731515 -5.019843 -8.514557 -4.105542 1.189634 -73.329526 -0.098879 45.957339 1.874064 -3.075340 6.074960 4.191437 -5.825545 5.729572 -1.969596 1.651441 -0.000000 0.000000 0.000000 0.000000 0.000000 0.000000 0.000000 11.893093 6.872473 4.620507 65.456552 11.317950 42.194200 -1.619829 2.122803 -3.814146 -3.276931 1.922597 -3.902770 1.168975 -0.627536 -0.000000 0.000000 0.000000 0.000000 0.000000 0.000000 0.000000
21.359403 18.635654 33.356739 -1.792362 8.850761 4.102913 -17.393618 1.041296 2.465649 2.751992 -7.076913 -30.189283 -16.205012 -30.376239 41.708902 -11.038167 51.921172 -4.008158 -0.314962 1.239665 -2.881005 16.081063 -6.607052 6.117785 -2.488701 5.479059 -13.435442 -4.046809 -15.910512 16.370640 18.043541 -14.665303 -4.870296 -0.177801 -0.608618 -1.554660 3.610354 1.907075 3.770683 0.656755 1.849022 -4.079088 0.345035 1.785183 -0.640523 -2.986417 -1.036682 -6.089400 2.465272 -12.381710 28.401053 -6.034430 -10.527998 -5.035998 -8.689731 -4.106860 1.277287 -73.387552 -0.073616 46.499719 1.900485 -2.353340 5.727103 3.949227 -5.586757 5.406358 -1.860524 1.643929 -0.000000 0.000000 0.000000 0.000000 0.000000 0.000000 0.000000 12.124350 6.710362 4.648475 65.607908 11.535144 42.485081 -1.770244 1.598737 -4.818031 -2.695153 2.103741 -4.894927 0.917646 -0.739450 -0.000000 0.000000 0.000000 0.000000 0.000000 0.000000 0.000000
21.392556 18.592221 33.498787 -2.175690 8.771678 3.937301 -17.467858 1.034756 2.537145 3.553604 -8.446394 -29.529064 -17.710729 -31.716582 43.320071 -8.268630 55.216692 -0.242891 0.340228 2.037611 0.529579 16.084085 -6.648231 5.995612 -1.908340 4.335585 -13.676841 -4.502208 -15.461140 17.888620 17.865075 -13.242739 -5.760832 -0.178584 -0.613199 -1.785544 3.837427 1.764408 3.673899 0.675634 1.686322 -4.083328 0.418542 1.629226 -0.673898 -2.973848 -0.999178 -6.066678 2.696722 -12.068410 28.341498 -6.009321 -10.157926 -4.957181 -8.864810 -4.155900 1.205411 -73.505366 0.024158 46.853250 1.818101 -1.482875 5.051662 4.100355 -5.617261 4.690135 -1.918231 1.729353 -0.000000 0.000000 0.000000 0.000000 0.000000 0.000000 0.000000 12.351916 6.572463 4.685745 65.874058 11.776195 43.392513 -1.962263 1.115170 -5.959925 -1.646367 2.620575 -6.018759 0.466394 -0.961106 -0.000000 0.000000 0.000000 0.000000 0.000000 0.000000 0.000000
21.425188 18.561650 33.640921 -2.304896 8.517501 3.643001 -17.532341 1.238253 2.618908 3.373457 -8.120663 -29.221887 -17.937141 -32.080955 44.270512 -9.687044 55.724082 -2.050286 0.443193 1.217110 1.802265 16.037967 -6.763080 5.953009 -1.909273 4.213148 -13.592085 -3.989340 -13.759766 19.892254 18.551259 -13.801258 -8.196106 -0.176233 -0.604756 -1.776257 3.811494 1.686034 3.701206 0.681515 1.614232 -4.085446 0.428939 1.554088 -0.611807 -2.983902 -1.035735 -6.102806 2.828726 -11.483287 28.103447 -5.282410 -9.576200 -3.518273 -9.127811 -4.257718 1.288728 -73.455831 0.112935 47.609077 1.640665 -0.790040 4.503016 2.954678 -5.495134 4.231976 -1.473551 1.843878 -0.000000 0.000000 0.000000 0.000000 0.000000 0.000000 0.000000 12.631737 6.631506 4.740534 66.037388 11.891239 42.762312 -1.956602 0.737210 -6.372471 -2.257358 2.958519 -6.482983 0.681921 -1.136239 -0.000000 0.000000 0.000000 0.000000 0.000000 0.000000 0.000000
21.453320 18.540084 33.771291 -2.385637 8.334088 3.356692 -17.478757 1.400116 2.617210 3.427182 -7.569263 -29.110627 -17.014776 -30.467791 43.622285 -11.767074 54.308526 -3.377022 0.553390 0.024089 3.601096 15.937630 -6.781798 5.901241 -1.952188 4.220173 -13.669837 -2.238164 -9.642751 23.058719 19.734277 -16.278785 -13.731092 -0.159008 -0.536945 -0.565617 3.711652 1.591191 3.766595 0.688356 1.530525 -4.085402 0.449763 1.467467 -0.592477 -2.936717 -1.005146 -6.058881 3.060420 -11.267188 27.994571 -5.122995 -9.296729 -2.734542 -9.450818 -4.595816 1.317295 -73.393598 0.174329 48.108846 1.606768 0.023652 4.179081 2.438987 -5.295253 3.949676 -1.258773 1.877221 -0.000000 0.000000 0.000000 0.000000 0.000000 0.000000 0.000000 12.925902 6.857088 4.765595 66.196086 11.743395 42.219869 -1.868535 0.493546 -6.232518 -1.115091 3.351650 -6.308351 0.234205 -1.273582 -0.000000 0.000000 0.000000 0.000000 0.000000 0.000000 0.000000
